<?xml version="1.0" standalone="no"?>
<!DOCTYPE svg PUBLIC "-//W3C//DTD SVG 20010904//EN"
 "http://www.w3.org/TR/2001/REC-SVG-20010904/DTD/svg10.dtd">
<svg version="1.0" xmlns="http://www.w3.org/2000/svg"
 width="290.000000pt" height="514.000000pt" viewBox="0 0 290.000000 514.000000"
 preserveAspectRatio="xMidYMid meet">
<metadata>
Created by potrace 1.16, written by Peter Selinger 2001-2019
</metadata>
<g transform="translate(0.000000,514.000000) scale(0.100000,-0.100000)"
fill="#000000" stroke="none">
<path d="M0 4803 c0 -297 2 -339 16 -355 16 -16 16 -18 0 -24 -13 -5 -16 -22
-16 -96 0 -98 3 -100 49 -25 12 20 25 37 27 37 3 0 2 -5 -2 -12 -5 -7 -3 -8 5
-4 7 5 10 10 7 13 -9 10 52 90 73 96 11 2 33 -5 50 -17 48 -33 43 -42 -106
-209 l-103 -115 0 -436 c0 -284 3 -436 10 -436 6 0 10 17 10 38 0 20 4 52 10
70 7 28 7 33 -5 28 -23 -8 -18 10 9 37 14 14 29 42 35 64 10 36 67 107 59 74
-2 -8 10 -21 26 -29 24 -12 30 -12 37 -1 7 11 9 9 9 -6 l1 -20 15 20 c8 11 19
26 23 34 6 10 13 11 29 2 16 -8 21 -7 26 4 3 8 10 15 15 15 5 0 -1 -19 -14
-42 -35 -61 -31 -67 14 -17 33 35 42 40 54 30 13 -10 10 -17 -18 -48 -28 -30
-31 -39 -22 -55 16 -25 35 -23 49 7 6 14 15 25 20 25 13 0 10 -10 -12 -37 -11
-14 -20 -29 -20 -33 0 -3 48 6 107 21 59 16 109 26 111 24 6 -5 -44 -25 -62
-25 -6 0 -16 -4 -21 -8 -6 -5 -48 -17 -95 -27 -47 -10 -112 -25 -145 -34 -54
-16 -60 -20 -56 -42 1 -13 7 -26 11 -29 5 -3 8 -14 7 -25 -3 -27 -36 -44 -65
-33 -41 14 -48 8 -13 -13 38 -23 37 -34 -3 -19 -44 16 -53 11 -19 -10 38 -23
43 -34 10 -24 -12 4 -29 9 -37 11 -8 3 -4 -4 9 -15 26 -21 21 -42 -10 -42 -21
0 -26 -25 -6 -33 6 -3 -3 -3 -21 0 -25 4 -32 2 -32 -11 0 -9 -7 -19 -15 -22
-15 -6 -21 -34 -7 -34 4 0 13 -4 20 -9 11 -7 10 -16 -7 -49 -20 -39 -21 -57
-21 -320 l0 -279 41 -12 c23 -7 39 -14 36 -17 -2 -2 -16 0 -31 6 -15 5 -31 10
-36 10 -6 0 -9 -232 -10 -552 l0 -551 20 18 c25 23 26 11 1 -21 -18 -23 -19
-45 -20 -294 -1 -252 3 -295 24 -259 4 6 13 8 20 5 20 -7 70 10 68 23 -2 6 -1
11 0 11 8 0 45 -38 77 -80 19 -25 41 -51 48 -58 14 -16 11 -18 98 56 29 23 56
42 60 41 26 -4 42 3 47 22 4 15 11 20 21 16 9 -4 16 -1 16 6 1 21 19 -18 29
-62 11 -50 -2 -98 -27 -105 -10 -2 -47 -12 -85 -22 -37 -9 -67 -22 -67 -29 0
-7 -16 -16 -36 -20 -20 -3 -34 -8 -31 -11 2 -3 52 7 111 21 59 14 111 23 117
19 6 -3 9 -15 6 -25 -3 -11 -1 -19 4 -19 17 0 9 -16 -19 -33 -27 -18 -22 -19
37 -2 14 4 21 3 18 -2 -4 -6 -50 -20 -104 -32 -153 -35 -183 -43 -183 -50 0
-3 -17 -7 -37 -7 -85 -3 -141 -9 -137 -16 3 -4 -12 -6 -33 -5 l-38 2 -3 -73
c-3 -70 9 -96 23 -51 5 16 10 18 18 9 9 -9 5 -17 -15 -35 -20 -17 -28 -34 -28
-57 0 -25 3 -29 12 -20 7 7 17 12 22 12 6 0 0 -7 -12 -16 -14 -10 -22 -25 -22
-45 l0 -29 1450 0 1450 0 0 625 c0 410 -3 625 -10 625 -5 0 -10 -4 -10 -10 0
-5 -7 -7 -15 -4 -14 6 -13 8 2 20 24 18 9 17 -28 -2 -17 -8 -37 -14 -46 -12
-9 2 12 16 46 32 41 20 61 35 61 48 0 17 -2 17 -32 -2 -18 -11 -37 -20 -43
-20 -5 0 9 12 33 26 l42 25 0 72 c0 62 -5 84 -41 165 -22 52 -38 96 -35 99 3
3 8 -6 12 -21 3 -14 10 -26 15 -26 5 0 9 -9 9 -20 0 -11 4 -20 8 -20 5 0 14
-10 20 -22 9 -19 11 -5 10 67 -1 83 -14 126 -32 107 -4 -3 -4 2 0 12 5 13 4
17 -4 12 -8 -4 -10 -2 -6 7 7 20 -12 31 -28 17 -7 -7 -38 -24 -68 -38 -41 -20
-56 -34 -61 -55 -8 -31 -3 -33 29 -11 18 12 22 12 22 1 0 -16 -51 -67 -67 -67
-17 0 -36 -56 -27 -82 4 -13 7 -28 6 -35 -2 -7 7 -31 18 -54 12 -22 19 -43 16
-46 -3 -3 -15 14 -27 38 -19 40 -20 24 -3 -28 6 -16 5 -16 -10 2 -17 19 -17
19 -12 -18 18 -117 18 -115 -3 -57 -11 30 -20 63 -21 73 0 40 -18 11 -50 -83
-24 -70 -37 -97 -44 -90 -8 8 -8 13 0 18 6 4 19 43 29 87 10 44 23 87 29 95
16 21 12 82 -14 180 l-22 85 32 26 c17 15 44 29 60 32 40 9 57 30 79 102 21
67 50 130 56 123 3 -2 -4 -31 -14 -64 -10 -33 -21 -77 -25 -97 l-7 -36 38 13
c21 7 44 11 51 9 6 -3 12 0 12 5 0 19 38 0 51 -26 13 -24 14 -12 17 120 1 82
1 214 0 295 l-3 148 -22 -60 c-12 -33 -30 -86 -39 -118 -9 -32 -18 -57 -20
-54 -6 5 17 90 55 202 17 50 31 108 31 129 0 36 -1 38 -18 24 -10 -10 -46 -18
-89 -22 -64 -6 -72 -4 -78 12 -3 11 -3 28 1 38 4 14 3 15 -4 6 -7 -10 -13 -7
-25 12 -21 31 -21 32 -3 39 10 4 13 1 9 -9 -3 -7 -1 -14 5 -14 16 0 23 31 11
46 -6 7 -18 10 -27 7 -14 -4 -14 -3 -3 5 13 9 13 13 0 29 -43 55 -104 112
-123 116 -11 1 21 3 71 3 60 0 97 4 105 12 28 28 52 10 105 -76 31 -50 43 -80
53 -127 4 -23 8 170 9 445 0 424 -1 483 -14 466 -25 -33 -31 8 -6 43 24 33 29
68 5 36 -43 -58 -40 -58 -83 -14 l-41 39 38 61 c40 66 55 77 60 43 2 -12 12
-30 23 -40 19 -17 19 -15 19 109 0 78 -4 127 -10 127 -5 0 -10 7 -10 15 0 8 5
15 10 15 6 0 10 37 10 90 0 89 -9 110 -30 70 -16 -30 -30 -24 -30 12 0 29 36
98 52 98 4 0 7 51 7 114 l1 114 -30 -11 c-17 -6 -30 -17 -30 -24 0 -23 -35
-34 -72 -21 -53 18 -60 26 -41 55 9 14 26 29 37 34 18 8 17 9 -6 4 -34 -7 -41
13 -13 40 42 39 78 95 63 95 -8 0 -41 11 -74 24 -32 13 -74 26 -91 29 -28 6
-33 4 -33 -14 0 -20 -26 -79 -36 -79 -2 0 2 13 11 30 23 44 20 63 -10 58 -14
-3 -25 -4 -25 -3 0 1 11 29 25 63 14 34 25 76 25 94 0 29 1 30 13 14 13 -17
15 -17 35 9 12 16 25 25 29 22 3 -4 3 -7 -1 -7 -4 0 -1 -6 6 -14 11 -12 18
-12 47 0 50 21 66 18 107 -21 63 -60 64 -57 64 146 0 129 -3 178 -11 173 -8
-4 -9 0 -4 15 l6 21 -1445 0 -1446 0 0 -337z m980 185 c0 6 7 12 16 12 10 0
14 -6 10 -15 -3 -9 5 -20 22 -30 27 -16 27 -16 2 -10 -18 3 -15 0 10 -11 27
-13 31 -18 19 -25 -21 -11 -224 -59 -271 -64 -21 -2 -43 -7 -49 -10 -18 -12
-312 -85 -340 -85 -33 0 -58 45 -37 67 8 7 70 27 138 43 69 16 136 36 150 44
37 21 177 49 206 42 18 -5 24 -3 19 5 -5 8 12 10 60 7 59 -3 64 -1 46 11 -12
7 -21 19 -21 25 0 6 5 4 10 -4 6 -10 10 -11 10 -2z m1513 -151 c-3 -5 10 -7
29 -6 18 2 39 0 46 -5 19 -11 14 -89 -10 -153 -25 -69 -85 -163 -104 -163 -27
0 -63 20 -67 37 -4 16 -5 15 -6 -2 -1 -21 50 -60 63 -48 3 3 6 4 6 1 0 -3 -16
-23 -35 -44 -42 -46 -78 -111 -70 -124 8 -12 26 -13 43 -1 12 7 12 12 1 29
-19 31 1 51 33 33 37 -20 86 -64 64 -57 -19 7 -19 6 -2 -13 16 -18 95 -51 161
-67 21 -5 25 -8 13 -11 -10 -3 -18 -8 -18 -11 0 -10 -291 -8 -318 2 -21 7 -23
12 -17 44 9 51 27 102 37 102 4 0 8 4 8 9 0 20 -35 3 -38 -18 -2 -15 -9 -21
-18 -17 -8 3 -14 -1 -14 -8 0 -8 6 -16 13 -19 6 -2 9 -8 5 -12 -4 -4 -15 -2
-24 6 -13 10 -18 11 -21 2 -3 -8 -15 -5 -39 9 -26 16 -37 18 -48 9 -12 -10
-15 4 -21 85 -4 53 -5 127 -3 164 3 42 1 73 -5 79 -8 8 -8 11 0 11 7 0 19 -10
28 -22 8 -13 19 -23 23 -23 12 0 9 -48 -5 -77 -14 -30 -7 -70 9 -46 7 10 10
10 19 -4 5 -10 14 -18 20 -18 6 0 6 7 1 18 -5 9 -7 22 -5 29 3 7 -3 9 -17 6
-19 -5 -20 -3 -10 22 6 15 8 31 4 36 -3 5 -1 9 3 9 18 0 6 53 -14 61 -10 4
-27 19 -36 33 -14 20 -14 24 -2 20 23 -9 85 16 85 34 1 19 32 45 67 56 12 4
20 12 17 19 -3 9 20 12 85 12 49 0 87 -4 84 -8z m-1753 -454 c-14 -2 -35 -6
-46 -8 -27 -6 -40 -33 -16 -31 21 1 23 -32 5 -94 -18 -60 -25 -65 -53 -35 -29
31 -37 31 -67 3 -19 -18 -27 -20 -47 -10 -22 10 -24 14 -16 44 7 23 6 34 -3
40 -6 4 -9 8 -4 9 4 1 10 2 15 3 4 1 23 12 42 24 19 12 40 23 45 23 6 1 20 3
32 4 12 1 29 10 38 19 11 10 31 16 58 15 25 -1 32 -3 17 -6z m-356 -122 c-4
-32 -3 -80 0 -105 l7 -46 33 47 c17 26 37 48 43 50 16 6 25 -27 12 -43 -9 -11
-8 -14 4 -14 24 0 36 -30 31 -78 -2 -24 1 -42 6 -42 6 0 11 8 11 18 1 9 2 37
4 62 1 25 3 49 4 53 2 13 31 -20 31 -35 0 -7 9 -31 21 -52 12 -23 17 -45 13
-55 -8 -16 -9 -26 -13 -65 -1 -18 -2 -18 -25 4 -32 29 -53 21 -61 -24 -9 -45
-22 -55 -67 -52 -21 2 -35 -1 -32 -6 3 -5 11 -7 18 -5 8 3 11 -4 8 -24 -2 -17
0 -29 7 -29 6 0 8 -7 5 -15 -4 -9 -19 -15 -36 -15 -36 0 -68 32 -69 69 0 26 0
26 -9 4 -10 -25 -30 -29 -61 -13 -18 10 -27 40 -11 40 4 0 8 11 8 24 2 20 -4
26 -27 31 -20 5 -29 13 -29 26 0 10 -6 19 -12 20 -10 0 -10 2 0 6 6 2 12 13
12 22 0 10 9 30 20 43 10 14 16 28 13 32 -3 3 1 6 10 6 9 0 19 5 23 12 5 7 3
8 -6 3 -9 -6 -11 -4 -5 5 7 11 12 9 23 -8 17 -25 35 -28 51 -8 9 11 9 15 -1
19 -8 4 -5 8 10 12 19 7 22 14 22 65 0 55 9 120 16 120 2 0 1 -26 -2 -59z
m702 36 c9 -9 13 -46 5 -45 -22 2 -41 -4 -41 -12 0 -5 -10 -20 -21 -31 -15
-15 -18 -24 -10 -29 14 -8 -1 -55 -21 -63 -9 -3 -7 -7 7 -12 11 -5 25 -12 32
-17 14 -11 5 -41 -9 -32 -6 4 -5 10 3 15 11 7 10 9 -3 9 -27 0 -48 -11 -48
-26 0 -8 -5 -14 -11 -14 -6 0 -9 7 -5 15 8 21 -37 20 -71 -2 -15 -10 -24 -13
-20 -7 10 17 -54 27 -89 14 -28 -11 -57 -43 -61 -69 -1 -7 -6 -18 -12 -24 -17
-17 -13 -27 10 -27 l20 0 -20 -26 c-21 -27 -21 -72 -1 -139 9 -27 8 -28 -5
-11 -38 50 -31 200 14 291 37 75 90 138 118 140 18 1 19 -1 10 -16 -6 -10 -19
-20 -29 -22 -10 -3 -18 -10 -18 -16 0 -8 22 -11 65 -9 53 2 62 4 45 13 -18 10
-18 11 10 23 22 10 28 18 24 36 -5 31 63 102 99 101 14 0 29 -3 33 -8z m1381
-1215 c18 -19 37 -31 43 -27 5 3 10 1 10 -4 0 -17 50 -13 56 4 4 8 10 15 16
15 5 0 6 -5 2 -12 -4 -7 -3 -8 5 -4 6 4 23 0 37 -9 14 -9 31 -14 37 -12 11 3
47 -33 47 -48 0 -4 -44 -5 -98 -3 -113 5 -142 19 -192 98 -48 75 -34 75 37 2z
m-600 -392 c13 0 23 -4 23 -10 0 -5 7 -10 16 -10 14 0 14 3 4 15 -10 12 -10
15 1 15 19 -1 82 -86 74 -100 -3 -5 -1 -10 5 -10 16 0 8 -159 -14 -274 -29
-156 -45 -148 -26 14 4 41 7 76 5 78 -2 2 -14 -3 -27 -12 -26 -17 -93 -28
-120 -20 -9 2 -19 12 -22 21 -5 12 -1 14 16 10 12 -4 29 -1 37 6 12 9 13 9 7
0 -4 -8 -1 -13 8 -13 11 0 16 9 16 29 0 35 18 51 45 40 38 -15 58 -11 52 11
-3 11 -1 18 3 15 13 -8 23 56 11 68 -8 8 -11 8 -11 0 0 -7 -13 -5 -35 5 -19 9
-35 22 -35 30 0 7 4 11 9 8 5 -4 7 4 3 16 -3 13 -1 19 5 15 12 -8 36 17 26 26
-9 9 -25 9 -20 0 3 -5 -6 -8 -19 -8 -13 0 -24 3 -24 7 0 3 -16 12 -35 18 -19
6 -32 16 -29 22 4 6 10 6 17 -1 6 -6 21 -11 34 -11z m-339 -1326 c17 -4 47
-22 67 -41 45 -44 47 -83 6 -124 -24 -24 -38 -29 -78 -30 l-48 -1 45 -13 c72
-21 21 -17 -66 5 -43 11 -83 25 -88 30 -6 6 12 4 39 -5 67 -20 71 -19 37 10
-16 14 -33 36 -36 50 -11 45 40 125 80 125 6 0 25 -3 42 -6z m275 -490 c7 19
146 19 164 0 17 -17 16 -27 -2 -20 -11 4 -15 -2 -15 -24 0 -16 5 -32 10 -35
17 -10 12 -85 -5 -85 -8 0 -15 -3 -15 -8 0 -4 -16 -7 -35 -8 -19 0 -35 3 -35
9 0 5 -7 6 -16 3 -9 -4 -23 -1 -30 5 -11 9 -18 8 -32 -3 -9 -9 -23 -13 -29
-11 -19 7 -16 33 5 40 30 10 64 56 58 78 -3 11 -6 27 -6 35 -1 10 -7 8 -21 -9
-15 -19 -22 -22 -28 -12 -11 17 -51 -24 -51 -51 0 -10 -5 -18 -11 -18 -6 0 -8
7 -5 16 4 9 1 23 -5 30 -7 9 -8 14 -1 14 6 0 13 -6 15 -12 3 -7 6 -1 6 13 1
18 8 28 21 32 15 4 18 10 13 24 -7 17 -6 17 19 1 21 -14 27 -15 31 -4z m-1264
-528 c-5 -5 -446 -114 -478 -118 -29 -4 -40 18 -14 26 36 10 429 105 453 108
23 4 49 -7 39 -16z"/>
</g>
</svg>
