<?xml version="1.0" standalone="no"?>
<!DOCTYPE svg PUBLIC "-//W3C//DTD SVG 20010904//EN"
 "http://www.w3.org/TR/2001/REC-SVG-20010904/DTD/svg10.dtd">
<svg version="1.0" xmlns="http://www.w3.org/2000/svg"
 width="512.000000pt" height="512.000000pt" viewBox="0 0 512.000000 512.000000"
 preserveAspectRatio="xMidYMid meet">
<metadata>
Created by potrace 1.16, written by Peter Selinger 2001-2019
</metadata>
<g transform="translate(0.000000,512.000000) scale(0.100000,-0.100000)"
fill="#000000" stroke="none">
<path d="M2472 5055 c-51 -7 -105 -16 -120 -21 -15 -4 -36 -9 -47 -11 -36 -6
-170 -54 -192 -69 -12 -8 -29 -14 -36 -14 -25 0 -167 -101 -201 -144 -133
-163 -130 -302 9 -573 49 -96 182 -304 222 -348 10 -11 31 -38 48 -59 36 -49
241 -256 310 -313 146 -121 310 -223 466 -289 88 -37 147 -54 279 -80 65 -13
238 -15 308 -4 72 11 212 59 284 96 50 26 184 129 221 170 51 57 128 177 122
192 -2 7 -1 11 3 8 17 -10 56 148 60 245 4 98 -13 243 -28 234 -4 -3 -6 3 -3
13 5 22 -39 137 -83 212 -18 31 -58 85 -89 120 -60 67 -175 181 -175 172 0 -2
-10 7 -21 22 -12 15 -28 25 -35 22 -8 -3 -13 0 -11 6 3 15 -95 94 -216 174
-99 66 -269 152 -342 174 -22 6 -62 18 -90 26 -116 35 -186 45 -365 49 -122 2
-217 -1 -278 -10z m115 -131 c84 -8 174 -19 200 -24 27 -5 75 -14 108 -20 279
-53 567 -149 802 -268 104 -53 98 -42 109 -197 15 -208 -36 -514 -144 -865
-62 -202 -75 -240 -81 -240 -4 0 -12 14 -18 31 -21 54 -96 179 -104 173 -5 -3
-7 1 -4 8 3 7 -24 62 -60 122 -36 61 -65 112 -65 114 0 2 -11 18 -25 36 -14
18 -25 38 -25 45 0 7 -4 9 -10 6 -5 -3 -10 0 -10 8 0 17 -164 255 -192 280
-11 9 -17 17 -14 17 8 0 -107 143 -202 250 -164 185 -381 382 -545 494 -31 22
-57 43 -57 48 0 10 105 4 337 -18z"/>
<path d="M2565 4854 c271 -196 561 -496 820 -849 32 -44 62 -81 67 -83 4 -2 8
-8 8 -14 0 -13 53 -98 61 -98 7 0 79 233 107 345 37 146 55 259 56 344 l1 84
-80 34 c-115 49 -237 93 -246 88 -4 -3 -9 -1 -11 3 -9 22 -403 113 -588 136
-223 27 -218 27 -195 10z"/>
<path d="M985 4299 c-55 -7 -80 -13 -155 -35 -31 -9 -122 -58 -176 -95 -61
-41 -251 -244 -323 -345 -76 -107 -152 -262 -180 -368 -81 -310 11 -642 248
-888 108 -112 216 -182 356 -229 159 -53 380 -15 636 110 365 177 633 465 709
761 18 71 21 104 17 200 -8 212 -97 387 -284 559 -206 190 -430 301 -665 331
-90 11 -95 11 -183 -1z m-90 -229 c180 -14 317 -38 540 -94 99 -26 186 -48
193 -51 10 -4 0 -24 -32 -69 -207 -290 -414 -654 -572 -1003 -44 -98 -124
-297 -124 -310 0 -28 -24 -22 -73 19 -281 232 -482 446 -608 646 l-52 84 33
81 c56 139 212 436 294 562 44 66 81 122 83 125 3 3 37 8 76 11 40 3 79 6 87
7 8 1 78 -3 155 -8z"/>
<path d="M519 3898 c-94 -147 -179 -305 -263 -491 l-27 -59 55 -67 c30 -37 92
-105 138 -152 102 -104 331 -300 339 -291 4 4 22 45 40 92 90 228 353 713 478
878 20 28 22 35 10 43 -52 32 -551 128 -671 129 l-46 0 -53 -82z"/>
<path d="M1532 2369 c-181 -30 -358 -151 -466 -319 -60 -93 -167 -272 -169
-284 -1 -6 -5 -13 -8 -16 -12 -10 -99 -188 -133 -273 -99 -247 -138 -478 -105
-624 48 -219 137 -360 314 -497 33 -26 66 -51 73 -57 30 -24 173 -108 242
-142 90 -43 227 -84 313 -93 120 -12 310 28 469 100 78 35 211 122 276 180 60
55 158 173 205 249 46 72 112 229 130 307 9 36 22 90 29 120 20 83 16 383 -6
485 -45 211 -165 427 -314 564 -86 79 -89 81 -158 128 -212 144 -472 208 -692
172z m-112 -368 c0 -17 75 -323 120 -486 12 -44 42 -145 67 -224 46 -143 46
-144 64 -122 10 12 88 95 173 184 169 178 406 450 406 466 0 24 19 9 29 -21
10 -32 53 -206 85 -343 24 -105 64 -398 68 -494 l2 -85 -119 -77 c-66 -42
-184 -111 -263 -154 -78 -43 -145 -81 -147 -86 -7 -10 16 -59 27 -59 4 0 8 -6
8 -14 0 -7 23 -48 51 -91 27 -42 49 -78 47 -79 -12 -8 -210 -69 -281 -86 l-88
-22 -27 23 c-15 13 -29 26 -32 29 -3 3 -31 27 -63 54 l-58 49 -110 -30 -110
-30 -62 47 c-93 71 -218 182 -236 210 -10 14 -11 21 -3 16 10 -6 99 52 200
132 l24 18 -49 65 c-26 35 -60 82 -75 104 -15 22 -49 72 -75 110 -27 39 -68
105 -92 148 l-43 79 38 71 c60 114 205 348 234 377 3 3 25 32 50 65 47 63 182
235 208 266 18 21 32 16 32 -10z"/>
<path d="M1301 1522 c-13 -15 -46 -52 -73 -82 -55 -61 -146 -187 -173 -239
-17 -33 -16 -34 11 -85 42 -80 132 -221 211 -333 53 -75 69 -104 60 -111 -22
-19 -151 -103 -189 -124 -21 -12 -38 -26 -38 -32 1 -12 49 -60 113 -114 l37
-32 98 36 c53 19 110 40 126 46 27 10 31 7 113 -81 64 -68 91 -91 110 -91 28
0 193 48 193 57 0 3 -13 22 -29 42 -35 44 -131 197 -131 209 0 5 69 44 153 86
145 75 312 170 350 200 17 13 17 18 2 81 -17 73 -80 304 -94 345 -5 14 -12 34
-15 44 -6 17 -21 6 -104 -75 -150 -148 -419 -384 -436 -384 -17 0 -148 329
-221 553 -20 61 -40 112 -43 112 -4 0 -18 -13 -31 -28z"/>
</g>
</svg>
